<svg id="svg" version="1.1" xmlns="http://www.w3.org/2000/svg" xmlns:xlink="http://www.w3.org/1999/xlink" width="400" height="400" viewBox="0, 0, 400,400"><g id="svgg"><path id="path0" d="M217.600 189.250 C 207.150 189.387,170.280 189.567,135.668 189.650 C 73.288 189.799,72.730 189.807,72.143 190.600 C 71.626 191.299,71.579 196.910,71.775 235.200 C 72.039 286.996,72.141 289.654,74.115 296.600 C 74.366 297.480,74.519 298.706,74.456 299.324 C 74.394 299.943,74.519 300.663,74.735 300.924 C 74.952 301.186,75.255 302.077,75.410 302.904 C 75.564 303.732,75.850 304.507,76.045 304.628 C 76.240 304.749,76.400 305.636,76.400 306.600 C 76.400 307.564,76.580 308.464,76.800 308.600 C 77.020 308.736,77.200 309.252,77.200 309.747 C 77.200 310.242,77.464 310.996,77.787 311.424 C 78.110 311.851,78.382 312.560,78.391 313.000 C 78.400 313.440,78.850 314.700,79.391 315.800 C 79.932 316.900,80.381 318.081,80.387 318.425 C 80.394 318.769,80.850 319.983,81.400 321.123 C 81.950 322.263,82.400 323.359,82.400 323.557 C 82.400 323.756,82.848 324.702,83.395 325.659 C 83.943 326.617,84.393 327.715,84.395 328.100 C 84.398 328.485,84.553 328.800,84.739 328.800 C 84.926 328.800,85.418 329.565,85.834 330.500 C 86.249 331.435,87.447 333.592,88.495 335.293 C 89.543 336.994,90.400 338.491,90.400 338.620 C 90.400 338.840,92.346 341.568,92.811 342.000 C 92.929 342.110,93.650 343.190,94.412 344.400 C 95.836 346.661,96.245 347.219,98.048 349.357 C 98.625 350.041,99.578 351.320,100.165 352.200 C 100.753 353.080,102.846 355.448,104.817 357.463 C 106.788 359.477,108.400 361.322,108.400 361.563 C 108.400 361.803,108.539 362.000,108.708 362.000 C 109.456 362.000,116.400 368.577,116.400 369.285 C 116.400 369.458,116.598 369.600,116.840 369.600 C 117.083 369.600,118.576 370.635,120.160 371.900 C 121.743 373.165,123.480 374.513,124.020 374.895 C 124.559 375.277,125.792 376.177,126.760 376.895 C 127.728 377.613,128.808 378.380,129.160 378.599 C 129.512 378.818,130.340 379.363,131.000 379.810 C 131.660 380.256,132.875 380.972,133.700 381.401 C 134.525 381.831,135.200 382.321,135.200 382.491 C 135.200 382.661,135.470 382.800,135.800 382.800 C 136.130 382.800,136.400 382.980,136.400 383.200 C 136.400 383.420,136.687 383.600,137.038 383.600 C 137.608 383.600,139.883 384.683,140.400 385.200 C 140.645 385.445,144.486 387.313,146.400 388.118 C 147.170 388.442,148.653 389.088,149.696 389.553 C 150.738 390.019,151.940 390.400,152.367 390.400 C 152.794 390.400,153.381 390.625,153.671 390.901 C 153.962 391.176,155.190 391.731,156.400 392.135 C 157.610 392.538,158.960 393.019,159.400 393.203 C 159.840 393.388,161.280 393.841,162.600 394.209 C 163.920 394.578,165.360 395.018,165.800 395.187 C 167.188 395.719,170.143 396.466,171.703 396.679 C 172.529 396.792,173.305 397.045,173.426 397.242 C 173.548 397.439,174.598 397.600,175.760 397.600 C 176.922 397.600,178.756 397.868,179.836 398.196 C 180.916 398.523,182.975 398.793,184.411 398.796 C 186.097 398.798,187.330 399.016,187.893 399.410 C 189.159 400.297,215.372 400.026,220.400 399.074 C 227.887 397.657,230.254 397.120,232.200 396.396 C 232.640 396.232,233.990 395.873,235.200 395.598 C 237.878 394.989,240.572 394.140,242.260 393.373 C 242.954 393.058,243.798 392.800,244.137 392.800 C 244.476 392.800,244.849 392.645,244.966 392.456 C 245.083 392.266,246.308 391.804,247.689 391.429 C 249.070 391.054,250.830 390.466,251.600 390.124 C 255.650 388.324,263.951 383.974,265.660 382.757 C 266.245 382.341,266.854 382.000,267.013 382.000 C 267.173 382.000,268.358 381.280,269.647 380.400 C 270.936 379.520,272.088 378.800,272.206 378.800 C 272.324 378.800,273.023 378.253,273.758 377.584 C 274.493 376.915,275.973 375.813,277.047 375.135 C 281.071 372.595,285.897 368.436,291.312 362.843 C 292.460 361.657,294.660 359.398,296.200 357.824 C 298.975 354.986,301.029 352.550,301.800 351.180 C 302.020 350.790,302.785 349.829,303.500 349.046 C 304.215 348.262,304.800 347.524,304.800 347.405 C 304.800 347.285,305.700 345.950,306.800 344.438 C 307.900 342.926,308.800 341.488,308.800 341.244 C 308.800 341.000,308.948 340.800,309.129 340.800 C 309.310 340.800,309.859 340.035,310.349 339.100 C 310.839 338.165,311.679 336.680,312.215 335.800 C 312.752 334.920,313.613 333.390,314.129 332.400 C 314.645 331.410,315.259 330.240,315.494 329.800 C 315.729 329.360,316.590 327.560,317.407 325.800 C 318.224 324.040,319.045 322.299,319.231 321.930 C 320.056 320.296,321.744 315.907,322.818 312.600 C 323.461 310.620,324.170 308.447,324.394 307.772 C 324.617 307.096,324.800 306.139,324.800 305.645 C 324.800 305.151,325.017 304.354,325.283 303.874 C 325.548 303.393,325.884 302.010,326.029 300.800 C 326.173 299.590,326.602 297.160,326.980 295.400 C 328.475 288.456,328.515 287.079,328.663 237.903 L 328.809 189.207 282.705 189.103 C 257.347 189.046,228.050 189.112,217.600 189.250 M199.200 235.200 C 199.650 235.491,199.450 235.588,198.400 235.588 C 197.350 235.588,197.150 235.491,197.600 235.200 C 197.930 234.987,198.290 234.812,198.400 234.812 C 198.510 234.812,198.870 234.987,199.200 235.200 M194.430 236.449 C 194.658 236.818,195.543 236.809,198.324 236.411 C 201.051 236.020,202.238 236.005,203.221 236.347 C 203.935 236.596,205.438 236.806,206.560 236.813 C 207.716 236.820,208.937 237.080,209.376 237.413 C 209.804 237.736,210.481 238.000,210.882 238.000 C 211.283 238.000,211.923 238.164,212.305 238.365 C 212.687 238.566,214.080 239.256,215.400 239.898 C 218.606 241.457,219.571 242.032,220.776 243.100 C 221.335 243.595,221.936 244.000,222.113 244.000 C 222.550 244.000,223.533 245.024,225.379 247.400 C 226.233 248.500,227.131 249.580,227.375 249.800 C 228.595 250.901,232.505 258.044,233.015 260.104 C 233.166 260.711,233.449 261.306,233.644 261.427 C 233.840 261.548,234.000 262.321,234.000 263.144 C 234.000 263.967,234.217 264.857,234.481 265.121 C 235.194 265.834,235.245 274.969,234.547 276.950 C 234.246 277.803,234.000 278.982,234.000 279.570 C 234.000 280.159,233.850 280.811,233.666 281.020 C 233.482 281.229,233.015 282.300,232.628 283.400 C 231.552 286.460,230.212 289.055,228.950 290.524 C 228.537 291.006,227.541 292.300,226.738 293.400 C 225.261 295.425,222.680 297.994,222.111 298.008 C 221.940 298.012,221.111 298.617,220.268 299.353 C 219.425 300.088,217.985 301.084,217.068 301.565 C 216.151 302.046,214.680 302.862,213.800 303.378 L 212.200 304.316 211.884 308.058 C 211.711 310.116,211.441 320.972,211.284 332.182 L 211.000 352.565 209.600 352.849 C 208.830 353.005,203.880 353.103,198.600 353.066 L 189.000 353.000 188.897 328.500 C 188.840 315.025,188.660 304.000,188.497 303.999 C 188.334 303.999,188.258 305.394,188.328 307.099 C 188.447 309.979,188.409 310.154,187.795 309.553 C 186.930 308.705,186.436 304.000,187.213 304.000 C 187.501 304.000,185.951 302.929,183.768 301.620 C 178.443 298.426,171.575 291.696,169.868 288.000 C 169.716 287.670,169.246 286.860,168.825 286.200 C 168.403 285.540,168.045 284.625,168.029 284.167 C 168.013 283.708,167.868 283.201,167.707 283.040 C 166.116 281.449,164.424 269.492,165.395 266.703 C 165.721 265.766,165.991 264.584,165.994 264.075 C 166.001 262.985,167.165 259.167,167.658 258.620 C 167.846 258.411,168.000 257.984,168.000 257.670 C 168.000 255.844,178.379 242.800,179.832 242.800 C 179.993 242.800,180.681 242.384,181.362 241.876 C 183.205 240.500,187.512 238.552,190.000 237.970 C 190.770 237.790,192.030 237.471,192.800 237.262 L 194.200 236.882 192.546 236.841 C 191.636 236.818,190.376 237.069,189.746 237.398 C 188.333 238.134,186.670 238.194,186.897 237.500 C 186.988 237.225,187.667 236.941,188.408 236.869 C 189.148 236.797,190.124 236.471,190.577 236.144 C 191.503 235.477,193.949 235.670,194.430 236.449 M186.200 238.400 C 186.064 238.620,185.683 238.800,185.353 238.800 C 185.023 238.800,184.864 238.620,185.000 238.400 C 185.136 238.180,185.517 238.000,185.847 238.000 C 186.177 238.000,186.336 238.180,186.200 238.400 M170.800 251.408 C 170.800 251.522,170.350 252.329,169.800 253.200 C 169.250 254.071,168.800 254.948,168.800 255.149 C 168.800 255.350,168.530 255.618,168.200 255.745 C 167.870 255.871,167.600 256.341,167.600 256.787 C 167.600 257.234,167.455 257.600,167.277 257.600 C 167.100 257.600,166.759 258.095,166.520 258.700 C 166.157 259.618,166.078 259.664,166.043 258.979 C 165.988 257.917,167.748 254.389,169.014 253.022 C 169.556 252.437,170.000 251.788,170.000 251.579 C 170.000 251.371,170.180 251.200,170.400 251.200 C 170.620 251.200,170.800 251.294,170.800 251.408 M164.800 271.400 C 164.800 271.704,164.620 272.064,164.400 272.200 C 164.172 272.341,164.000 271.996,164.000 271.400 C 164.000 270.804,164.172 270.459,164.400 270.600 C 164.620 270.736,164.800 271.096,164.800 271.400 M166.800 282.600 C 166.800 284.062,166.267 284.472,165.834 283.344 C 165.531 282.555,165.906 281.200,166.427 281.200 C 166.632 281.200,166.800 281.830,166.800 282.600 M169.371 288.100 C 170.537 290.388,171.474 291.822,172.583 293.020 C 173.179 293.662,173.938 294.649,174.271 295.213 C 174.605 295.777,175.417 296.478,176.076 296.770 C 176.735 297.061,177.770 297.773,178.375 298.350 C 180.483 300.361,181.610 301.200,182.203 301.200 C 182.531 301.200,182.800 301.352,182.800 301.539 C 182.800 301.725,183.205 302.066,183.700 302.297 C 184.537 302.686,184.548 302.737,183.860 303.016 C 183.452 303.181,183.002 303.142,182.860 302.928 C 182.717 302.715,181.970 302.193,181.200 301.770 C 180.430 301.346,179.434 300.595,178.987 300.100 C 178.540 299.605,177.995 299.200,177.776 299.200 C 177.557 299.200,177.092 298.885,176.744 298.500 C 176.395 298.115,175.095 296.863,173.855 295.718 C 172.615 294.572,171.600 293.485,171.600 293.301 C 171.600 293.117,170.970 292.299,170.200 291.482 C 169.430 290.666,168.800 289.716,168.800 289.371 C 168.800 289.025,168.528 288.471,168.196 288.139 C 167.609 287.552,167.711 286.800,168.378 286.800 C 168.560 286.800,169.007 287.385,169.371 288.100 " stroke="none" fill="#43c7a7" fill-rule="evenodd"></path><path id="path1" d="M196.400 236.614 C 193.191 237.121,191.701 237.470,188.400 238.485 C 186.296 239.131,182.758 240.837,181.362 241.877 C 180.681 242.385,179.993 242.800,179.832 242.800 C 178.379 242.800,168.000 255.844,168.000 257.670 C 168.000 257.984,167.846 258.411,167.658 258.620 C 167.165 259.167,166.001 262.985,165.994 264.075 C 165.991 264.584,165.721 265.766,165.395 266.703 C 164.424 269.492,166.116 281.449,167.707 283.040 C 167.868 283.201,168.013 283.708,168.029 284.167 C 168.045 284.625,168.403 285.540,168.825 286.200 C 169.246 286.860,169.716 287.670,169.868 288.000 C 172.073 292.774,184.981 304.000,188.265 304.000 C 188.696 304.000,188.813 308.515,188.897 328.500 L 189.000 353.000 198.600 353.066 C 203.880 353.103,208.830 353.005,209.600 352.849 L 211.000 352.565 211.284 332.182 C 211.441 320.972,211.711 310.116,211.884 308.058 L 212.200 304.316 213.800 303.378 C 214.680 302.862,216.151 302.046,217.068 301.565 C 217.985 301.084,219.425 300.088,220.268 299.353 C 221.111 298.617,221.940 298.012,222.111 298.008 C 222.680 297.994,225.261 295.425,226.738 293.400 C 227.541 292.300,228.537 291.006,228.950 290.524 C 230.212 289.055,231.552 286.460,232.628 283.400 C 233.015 282.300,233.482 281.229,233.666 281.020 C 233.850 280.811,234.000 280.159,234.000 279.570 C 234.000 278.982,234.246 277.803,234.547 276.950 C 235.245 274.969,235.194 265.834,234.481 265.121 C 234.217 264.857,234.000 263.967,234.000 263.144 C 234.000 262.321,233.840 261.548,233.644 261.427 C 233.449 261.306,233.166 260.711,233.015 260.104 C 232.505 258.044,228.595 250.901,227.375 249.800 C 227.131 249.580,226.233 248.500,225.379 247.400 C 223.533 245.024,222.550 244.000,222.113 244.000 C 221.936 244.000,221.335 243.595,220.776 243.100 C 219.571 242.032,218.606 241.457,215.400 239.898 C 214.080 239.256,212.687 238.566,212.305 238.365 C 211.923 238.164,211.288 238.000,210.894 238.000 C 210.500 238.000,209.823 237.753,209.389 237.451 C 208.677 236.955,207.414 236.758,201.600 236.237 C 200.610 236.148,198.270 236.318,196.400 236.614 " stroke="none" fill="#393d62" fill-rule="evenodd"></path><path id="path2" d="M199.608 35.186 C 199.626 62.273,199.743 70.444,200.116 70.684 C 200.877 71.176,204.826 71.946,206.728 71.974 C 209.220 72.011,216.015 74.854,220.016 77.533 C 227.162 82.319,232.703 91.642,234.081 101.200 C 234.899 106.868,234.943 188.311,234.129 188.497 C 233.728 188.589,249.780 188.700,269.800 188.744 L 306.200 188.824 305.965 141.112 C 305.754 98.057,305.663 93.029,305.032 89.600 C 304.647 87.510,304.207 84.810,304.054 83.600 C 303.900 82.390,303.390 80.230,302.921 78.800 C 302.451 77.370,301.567 74.580,300.957 72.600 C 297.588 61.659,288.718 45.283,282.943 39.339 C 282.314 38.692,281.350 37.494,280.800 36.676 C 279.439 34.653,270.331 25.769,267.387 23.593 C 266.074 22.622,264.255 21.192,263.344 20.414 C 259.883 17.458,250.665 11.746,246.401 9.916 C 245.411 9.491,244.061 8.910,243.401 8.625 C 240.252 7.265,236.958 5.998,236.575 5.999 C 236.341 5.999,235.441 5.665,234.575 5.255 C 232.502 4.274,225.853 2.374,221.800 1.604 C 220.480 1.354,218.368 0.890,217.106 0.574 C 215.514 0.176,212.483 0.000,207.199 0.000 L 199.586 0.000 199.608 35.186 M95.600 188.335 C 93.263 188.823,128.861 189.220,147.301 188.912 C 160.983 188.684,163.805 188.552,160.800 188.285 C 158.710 188.099,153.130 188.055,148.400 188.186 C 136.116 188.528,119.882 188.568,107.600 188.286 C 101.770 188.153,96.370 188.175,95.600 188.335 M70.667 189.067 C 70.520 189.213,70.443 204.378,70.497 222.767 L 70.593 256.200 70.797 222.800 L 71.000 189.400 82.600 189.191 L 94.200 188.982 82.567 188.891 C 76.168 188.841,70.813 188.920,70.667 189.067 M174.300 189.100 C 178.975 189.164,186.625 189.164,191.300 189.100 C 195.975 189.036,192.150 188.983,182.800 188.983 C 173.450 188.983,169.625 189.036,174.300 189.100 M329.156 189.344 C 329.627 189.914,329.688 197.452,329.550 238.109 C 329.457 265.755,329.515 280.503,329.688 272.800 C 330.241 248.058,329.899 189.099,329.200 188.868 C 328.683 188.697,328.677 188.763,329.156 189.344 M71.004 276.400 C 71.052 288.015,71.486 293.855,72.440 295.695 C 72.638 296.077,72.800 296.943,72.800 297.619 C 72.800 298.296,73.081 299.784,73.424 300.925 C 73.767 302.066,74.232 303.720,74.457 304.600 C 75.321 307.979,75.769 309.292,75.913 308.862 C 75.994 308.617,75.786 307.467,75.450 306.308 C 74.168 301.886,73.540 299.287,72.959 296.000 C 72.629 294.130,72.168 291.520,71.935 290.200 C 71.702 288.880,71.387 282.490,71.233 276.000 L 70.955 264.200 71.004 276.400 M328.682 287.550 C 328.527 288.293,328.420 289.373,328.444 289.950 C 328.473 290.642,328.610 290.387,328.847 289.200 C 329.045 288.210,329.152 287.130,329.085 286.800 C 329.019 286.470,328.838 286.808,328.682 287.550 M327.933 293.200 C 327.786 294.410,327.558 295.760,327.427 296.200 C 327.296 296.640,327.470 296.393,327.815 295.652 C 328.161 294.907,328.387 293.565,328.321 292.652 C 328.202 291.033,328.195 291.043,327.933 293.200 M326.846 298.267 C 326.821 298.524,326.684 299.064,326.541 299.467 C 326.340 300.036,326.394 300.097,326.779 299.742 C 327.052 299.491,327.189 298.951,327.084 298.542 C 326.979 298.134,326.872 298.010,326.846 298.267 M326.067 302.076 C 326.030 303.108,325.820 304.064,325.600 304.200 C 325.380 304.336,325.209 304.932,325.219 305.524 C 325.235 306.425,325.336 306.320,325.842 304.877 C 326.174 303.929,326.376 302.489,326.290 301.677 C 326.149 300.334,326.128 300.370,326.067 302.076 M324.846 307.467 C 324.821 307.724,324.684 308.264,324.541 308.667 C 324.340 309.236,324.394 309.297,324.779 308.942 C 325.052 308.691,325.189 308.151,325.084 307.742 C 324.979 307.334,324.872 307.210,324.846 307.467 M76.025 310.000 C 76.012 310.606,76.803 313.062,77.248 313.800 C 77.381 314.020,77.816 315.280,78.215 316.600 C 78.613 317.920,79.199 319.360,79.515 319.800 L 80.091 320.600 79.867 319.800 C 79.042 316.848,76.042 309.197,76.025 310.000 M323.000 313.475 C 322.340 315.563,321.665 317.356,321.500 317.459 C 321.335 317.563,321.200 317.937,321.200 318.290 C 321.200 319.580,322.898 315.658,324.063 311.676 C 324.990 308.509,324.087 310.037,323.000 313.475 M80.000 321.102 C 80.000 321.502,81.302 324.316,83.748 329.200 C 89.207 340.101,96.724 351.041,103.701 358.235 C 105.213 359.795,106.800 361.646,107.228 362.349 C 107.655 363.052,108.347 363.756,108.764 363.914 C 109.181 364.071,110.866 365.460,112.507 367.000 C 114.148 368.540,116.191 370.375,117.046 371.078 C 117.901 371.781,119.230 372.922,120.000 373.614 C 120.770 374.305,122.570 375.650,124.000 376.602 C 125.430 377.554,127.590 379.029,128.800 379.880 C 131.370 381.688,133.220 382.806,136.800 384.714 C 142.748 387.884,145.146 389.068,147.800 390.144 C 149.340 390.768,151.590 391.693,152.800 392.199 C 158.278 394.492,167.994 397.319,175.400 398.776 C 176.720 399.036,178.353 399.417,179.028 399.624 C 179.704 399.831,180.874 399.995,181.628 399.988 C 183.693 399.970,182.270 399.352,179.400 399.021 C 178.080 398.868,176.370 398.592,175.600 398.407 C 174.830 398.222,172.850 397.766,171.200 397.394 C 165.584 396.126,160.867 394.605,150.200 390.621 C 146.104 389.091,138.729 385.375,133.074 381.992 C 131.795 381.226,130.402 380.404,129.977 380.164 C 129.553 379.925,128.889 379.453,128.503 379.116 C 128.116 378.780,126.270 377.461,124.400 376.186 C 120.470 373.507,117.563 371.088,112.883 366.600 C 111.048 364.840,109.269 363.301,108.930 363.180 C 108.591 363.058,108.106 362.572,107.853 362.100 C 107.600 361.627,105.764 359.566,103.772 357.520 C 99.114 352.736,92.872 344.316,88.277 336.621 C 86.256 333.236,80.800 322.301,80.800 321.636 C 80.800 321.422,80.620 321.136,80.400 321.000 C 80.180 320.864,80.000 320.910,80.000 321.102 M319.622 322.121 C 318.172 325.467,317.770 326.285,317.029 327.400 C 316.321 328.464,316.314 328.534,316.960 328.014 C 317.362 327.691,318.130 326.431,318.668 325.214 C 319.206 323.996,319.846 322.595,320.090 322.101 C 320.335 321.606,320.454 321.121,320.355 321.022 C 320.257 320.924,319.927 321.418,319.622 322.121 M316.046 329.245 C 316.003 329.841,314.264 333.159,311.980 337.000 C 311.294 338.155,311.220 338.447,311.715 338.051 C 312.092 337.749,312.400 337.327,312.400 337.113 C 312.400 336.899,312.804 336.157,313.297 335.464 C 314.818 333.328,316.445 329.916,316.264 329.241 C 316.108 328.656,316.089 328.656,316.046 329.245 M309.396 341.294 C 307.714 344.057,304.450 348.709,302.837 350.643 C 300.657 353.256,300.419 353.600,300.795 353.600 C 301.007 353.600,301.499 353.105,301.887 352.500 C 302.275 351.895,303.011 350.950,303.523 350.400 C 304.803 349.025,311.322 339.188,311.100 338.967 C 311.002 338.868,310.235 339.916,309.396 341.294 M298.665 355.800 C 297.006 357.785,296.970 358.231,298.609 356.500 C 299.593 355.460,300.580 354.000,300.299 354.000 C 300.228 354.000,299.492 354.810,298.665 355.800 M292.762 361.912 C 286.800 368.111,281.326 372.940,277.810 375.104 C 276.645 375.822,274.997 377.045,274.147 377.823 L 272.604 379.237 273.902 378.589 C 274.616 378.233,275.200 377.783,275.200 377.590 C 275.200 377.397,276.415 376.449,277.900 375.483 C 281.662 373.036,288.290 367.427,291.164 364.258 C 291.734 363.630,293.290 361.965,294.622 360.558 C 295.954 359.151,296.927 358.000,296.784 358.000 C 296.641 358.000,294.831 359.760,292.762 361.912 M269.638 380.818 C 268.449 381.688,267.660 382.400,267.883 382.400 C 268.107 382.400,268.926 381.905,269.703 381.300 C 270.480 380.695,271.450 379.986,271.858 379.724 C 272.266 379.461,272.420 379.244,272.200 379.241 C 271.980 379.238,270.827 379.948,269.638 380.818 M265.954 383.111 C 265.429 383.501,264.505 384.072,263.901 384.378 C 263.296 384.684,262.862 384.995,262.936 385.069 C 263.130 385.263,265.232 384.135,266.400 383.210 C 267.643 382.225,267.258 382.139,265.954 383.111 M257.890 387.488 C 255.520 388.713,253.663 389.797,253.764 389.897 C 253.921 390.055,255.979 389.112,258.000 387.957 C 258.330 387.768,259.354 387.251,260.276 386.808 C 261.197 386.365,262.063 385.822,262.199 385.601 C 262.526 385.073,262.800 384.953,257.890 387.488 M249.400 391.296 C 245.528 392.595,244.765 392.898,244.935 393.069 C 245.024 393.157,245.525 393.061,246.048 392.855 C 246.572 392.649,248.125 392.164,249.500 391.777 C 250.875 391.390,252.000 390.922,252.000 390.737 C 252.000 390.552,251.955 390.420,251.900 390.445 C 251.845 390.470,250.720 390.853,249.400 391.296 M242.400 393.827 L 241.000 394.393 242.400 394.154 C 243.170 394.023,243.971 393.755,244.180 393.558 C 244.716 393.053,244.074 393.150,242.400 393.827 M236.800 395.693 C 232.921 396.831,231.897 397.191,233.000 397.027 C 235.300 396.686,237.426 396.137,238.210 395.682 C 239.157 395.133,238.694 395.137,236.800 395.693 M229.922 397.411 C 229.806 397.528,228.921 397.792,227.955 398.000 C 226.229 398.371,226.236 398.373,228.379 398.164 C 230.666 397.941,232.583 397.236,230.967 397.212 C 230.508 397.205,230.038 397.295,229.922 397.411 M224.400 398.800 C 224.070 399.013,223.170 399.193,222.400 399.200 C 221.630 399.207,220.730 399.397,220.400 399.623 C 219.974 399.914,220.381 399.954,221.800 399.762 C 223.905 399.477,225.600 398.963,225.600 398.610 C 225.600 398.286,225.063 398.371,224.400 398.800 " stroke="none" fill="#b5e5d5" fill-rule="evenodd"></path><path id="path3" d="M0.000 200.000 L 0.000 400.000 89.900 399.994 C 148.088 399.990,179.588 399.851,179.200 399.600 C 178.870 399.387,178.171 399.209,177.646 399.206 C 177.122 399.203,176.042 399.032,175.246 398.827 C 174.451 398.622,172.540 398.163,171.000 397.807 C 164.738 396.361,157.180 394.032,152.800 392.199 C 151.590 391.693,149.340 390.768,147.800 390.144 C 142.509 387.999,133.171 382.955,128.800 379.880 C 127.590 379.029,125.430 377.554,124.000 376.602 C 122.570 375.650,120.770 374.305,120.000 373.614 C 119.230 372.922,117.901 371.781,117.046 371.078 C 116.191 370.375,114.148 368.540,112.507 367.000 C 110.866 365.460,109.181 364.071,108.764 363.914 C 108.347 363.756,107.655 363.052,107.228 362.349 C 106.800 361.646,105.213 359.795,103.701 358.235 C 95.386 349.661,85.767 334.814,80.616 322.600 C 80.244 321.720,79.692 320.460,79.388 319.800 C 79.084 319.140,78.530 317.610,78.157 316.400 C 77.783 315.190,77.358 314.020,77.211 313.800 C 77.064 313.580,76.711 312.590,76.425 311.600 C 76.140 310.610,75.670 308.990,75.381 308.000 C 75.092 307.010,74.674 305.480,74.452 304.600 C 74.229 303.720,73.767 302.066,73.424 300.925 C 73.081 299.784,72.800 298.296,72.800 297.619 C 72.800 296.943,72.636 296.077,72.436 295.695 C 71.061 293.068,70.336 263.081,70.504 215.800 L 70.600 189.000 83.600 188.675 C 90.750 188.496,99.930 188.336,104.000 188.320 C 118.543 188.261,145.521 188.256,152.400 188.311 C 198.550 188.682,232.452 188.804,233.529 188.602 L 234.858 188.353 234.657 146.076 C 234.425 97.161,234.501 98.220,230.621 90.200 C 226.102 80.863,214.604 72.091,206.728 71.974 C 204.806 71.946,200.875 71.174,200.096 70.673 C 199.796 70.479,199.613 69.592,199.643 68.474 C 199.670 67.443,199.672 51.615,199.646 33.300 L 199.600 0.000 99.800 0.000 L 0.000 0.000 0.000 200.000 M217.000 0.611 C 217.880 0.901,219.002 1.152,219.494 1.169 C 220.809 1.214,223.954 1.970,230.600 3.835 C 231.920 4.206,233.709 4.845,234.575 5.255 C 235.441 5.665,236.341 5.999,236.575 5.999 C 236.958 5.998,240.252 7.265,243.401 8.625 C 244.061 8.910,245.411 9.491,246.401 9.916 C 250.665 11.746,259.883 17.458,263.344 20.414 C 264.255 21.192,266.074 22.622,267.387 23.593 C 270.331 25.769,279.439 34.653,280.800 36.676 C 281.350 37.494,282.314 38.692,282.943 39.339 C 284.508 40.950,289.818 48.367,291.232 50.916 C 295.155 57.991,299.314 67.263,300.957 72.600 C 301.567 74.580,302.451 77.370,302.921 78.800 C 303.390 80.230,303.900 82.390,304.054 83.600 C 304.207 84.810,304.648 87.510,305.033 89.600 C 305.664 93.031,305.755 98.028,305.966 141.000 L 306.200 188.600 318.000 188.800 L 329.800 189.000 329.771 236.400 C 329.741 285.934,329.667 288.319,327.953 295.000 C 327.727 295.880,327.453 297.140,327.344 297.800 C 327.235 298.460,326.987 299.360,326.794 299.800 C 326.600 300.240,326.355 301.410,326.249 302.400 C 326.064 304.118,325.200 307.925,324.705 309.200 C 324.577 309.530,324.293 310.520,324.074 311.400 C 323.597 313.309,322.275 316.982,321.140 319.547 C 320.689 320.566,320.168 321.760,319.983 322.200 C 318.464 325.803,317.596 327.506,317.045 327.963 C 316.690 328.257,316.400 328.825,316.400 329.225 C 316.400 329.983,314.770 333.337,313.397 335.404 C 312.089 337.373,311.617 338.157,311.236 339.000 C 310.674 340.240,305.059 348.587,303.550 350.425 C 302.807 351.330,301.705 352.620,301.100 353.294 C 300.495 353.968,300.000 354.627,300.000 354.760 C 300.000 354.893,298.245 356.824,296.100 359.051 C 293.955 361.278,291.734 363.618,291.164 364.250 C 288.346 367.379,281.679 373.025,277.900 375.483 C 276.415 376.449,275.200 377.416,275.200 377.632 C 275.200 377.848,274.885 378.144,274.500 378.288 C 274.115 378.433,272.837 379.192,271.659 379.976 C 270.481 380.759,268.771 381.820,267.859 382.333 C 266.947 382.847,265.930 383.491,265.600 383.766 C 265.270 384.041,264.370 384.578,263.600 384.959 C 262.830 385.340,261.300 386.174,260.200 386.813 C 259.100 387.453,257.930 388.093,257.600 388.237 C 257.270 388.380,256.110 388.926,255.021 389.449 C 253.933 389.972,252.808 390.400,252.521 390.400 C 252.235 390.400,252.000 390.547,252.000 390.727 C 252.000 391.052,248.170 392.400,247.246 392.400 C 246.979 392.400,246.042 392.747,245.164 393.172 C 244.285 393.597,242.988 394.068,242.283 394.219 C 241.577 394.370,240.820 394.606,240.600 394.744 C 239.951 395.149,237.508 396.036,236.000 396.413 C 235.230 396.606,233.790 396.965,232.800 397.212 C 231.810 397.459,229.920 397.847,228.600 398.076 C 227.280 398.304,225.801 398.678,225.312 398.906 C 224.824 399.135,223.744 399.454,222.912 399.615 C 222.081 399.776,261.585 399.929,310.700 399.954 L 400.000 400.000 400.000 200.000 L 400.000 0.000 307.700 0.042 C 230.725 0.077,215.666 0.171,217.000 0.611 " stroke="none" fill="#f0f4f3" fill-rule="evenodd"></path><path id="path4" d="M235.387 188.746 C 235.307 188.826,198.443 188.938,153.466 188.994 C 108.489 189.051,71.463 189.238,71.186 189.409 C 70.537 189.810,70.885 284.611,71.547 287.800 C 71.776 288.900,72.255 291.600,72.612 293.800 C 72.970 296.000,73.500 298.790,73.791 300.000 C 75.014 305.084,76.860 311.765,77.236 312.468 C 77.459 312.884,77.972 314.253,78.377 315.512 C 79.522 319.067,80.529 321.413,83.828 328.200 C 89.048 338.943,96.846 350.406,103.772 357.520 C 105.764 359.566,107.600 361.627,107.853 362.100 C 108.106 362.572,108.591 363.058,108.930 363.180 C 109.269 363.301,111.048 364.840,112.883 366.600 C 117.563 371.088,120.470 373.507,124.400 376.186 C 126.270 377.461,128.116 378.780,128.503 379.116 C 128.889 379.453,129.553 379.925,129.977 380.164 C 130.402 380.404,131.795 381.226,133.074 381.992 C 138.729 385.375,146.104 389.091,150.200 390.621 C 160.495 394.466,165.249 396.011,170.800 397.317 C 180.585 399.619,189.487 400.712,187.824 399.409 C 187.310 399.006,186.159 398.799,184.424 398.796 C 182.981 398.793,180.916 398.523,179.836 398.196 C 178.756 397.868,176.922 397.600,175.760 397.600 C 174.598 397.600,173.548 397.439,173.426 397.242 C 173.305 397.045,172.529 396.792,171.703 396.679 C 170.143 396.466,167.188 395.719,165.800 395.187 C 165.360 395.018,163.920 394.578,162.600 394.209 C 161.280 393.841,159.840 393.388,159.400 393.203 C 158.960 393.019,157.610 392.538,156.400 392.135 C 155.190 391.731,153.962 391.176,153.671 390.901 C 153.381 390.625,152.794 390.400,152.367 390.400 C 151.940 390.400,150.738 390.019,149.696 389.553 C 148.653 389.088,147.170 388.442,146.400 388.118 C 144.486 387.313,140.645 385.445,140.400 385.200 C 139.883 384.683,137.608 383.600,137.038 383.600 C 136.687 383.600,136.400 383.420,136.400 383.200 C 136.400 382.980,136.130 382.800,135.800 382.800 C 135.470 382.800,135.200 382.661,135.200 382.491 C 135.200 382.321,134.525 381.831,133.700 381.401 C 132.875 380.972,131.660 380.256,131.000 379.810 C 130.340 379.363,129.512 378.818,129.160 378.599 C 128.808 378.380,127.728 377.613,126.760 376.895 C 125.792 376.177,124.559 375.277,124.020 374.895 C 123.480 374.513,121.743 373.165,120.160 371.900 C 118.576 370.635,117.083 369.600,116.840 369.600 C 116.598 369.600,116.400 369.458,116.400 369.285 C 116.400 368.577,109.456 362.000,108.708 362.000 C 108.539 362.000,108.400 361.803,108.400 361.563 C 108.400 361.322,106.788 359.477,104.817 357.463 C 102.846 355.448,100.753 353.080,100.165 352.200 C 99.578 351.320,98.625 350.041,98.048 349.357 C 96.245 347.219,95.836 346.661,94.412 344.400 C 93.650 343.190,92.929 342.110,92.811 342.000 C 92.346 341.568,90.400 338.840,90.400 338.620 C 90.400 338.491,89.543 336.994,88.495 335.293 C 87.447 333.592,86.249 331.435,85.834 330.500 C 85.418 329.565,84.926 328.800,84.739 328.800 C 84.553 328.800,84.398 328.485,84.395 328.100 C 84.393 327.715,83.943 326.617,83.395 325.659 C 82.848 324.702,82.400 323.756,82.400 323.557 C 82.400 323.359,81.950 322.263,81.400 321.123 C 80.850 319.983,80.394 318.769,80.387 318.425 C 80.381 318.081,79.932 316.900,79.391 315.800 C 78.850 314.700,78.400 313.440,78.391 313.000 C 78.382 312.560,78.110 311.851,77.787 311.424 C 77.464 310.996,77.200 310.242,77.200 309.747 C 77.200 309.252,77.020 308.736,76.800 308.600 C 76.580 308.464,76.400 307.564,76.400 306.600 C 76.400 305.636,76.240 304.749,76.045 304.628 C 75.850 304.507,75.564 303.732,75.410 302.904 C 75.255 302.077,74.952 301.186,74.735 300.924 C 74.519 300.663,74.394 299.943,74.456 299.324 C 74.519 298.706,74.366 297.480,74.115 296.600 C 72.141 289.654,72.039 286.996,71.775 235.200 C 71.579 196.910,71.626 191.299,72.143 190.600 C 72.730 189.807,73.287 189.799,135.668 189.651 C 170.280 189.569,207.240 189.389,217.800 189.251 C 228.360 189.113,257.657 189.046,282.905 189.102 L 328.809 189.203 328.648 237.902 C 328.560 264.686,328.392 287.680,328.276 289.000 L 328.064 291.400 328.455 289.400 C 329.553 283.781,330.134 190.141,329.077 189.264 C 328.590 188.860,235.786 188.347,235.387 188.746 M197.600 235.200 C 197.150 235.491,197.350 235.588,198.400 235.588 C 199.450 235.588,199.650 235.491,199.200 235.200 C 198.870 234.987,198.510 234.812,198.400 234.812 C 198.290 234.812,197.930 234.987,197.600 235.200 M190.566 236.169 C 190.119 236.482,189.148 236.797,188.408 236.869 C 187.667 236.941,186.988 237.225,186.897 237.500 C 186.670 238.194,188.333 238.134,189.746 237.398 C 190.376 237.069,191.681 236.800,192.646 236.800 C 194.509 236.800,195.001 236.254,193.500 235.852 C 192.110 235.480,191.448 235.551,190.566 236.169 M185.000 238.400 C 184.864 238.620,185.023 238.800,185.353 238.800 C 185.683 238.800,186.064 238.620,186.200 238.400 C 186.336 238.180,186.177 238.000,185.847 238.000 C 185.517 238.000,185.136 238.180,185.000 238.400 M170.000 251.579 C 170.000 251.788,169.556 252.437,169.014 253.022 C 167.748 254.389,165.988 257.917,166.043 258.979 C 166.078 259.664,166.157 259.618,166.520 258.700 C 166.759 258.095,167.100 257.600,167.277 257.600 C 167.455 257.600,167.600 257.234,167.600 256.787 C 167.600 256.341,167.870 255.871,168.200 255.745 C 168.530 255.618,168.800 255.350,168.800 255.149 C 168.800 254.948,169.250 254.071,169.800 253.200 C 170.910 251.442,170.982 251.200,170.400 251.200 C 170.180 251.200,170.000 251.371,170.000 251.579 M164.000 271.400 C 164.000 271.996,164.172 272.341,164.400 272.200 C 164.620 272.064,164.800 271.704,164.800 271.400 C 164.800 271.096,164.620 270.736,164.400 270.600 C 164.172 270.459,164.000 270.804,164.000 271.400 M165.818 281.944 C 165.548 282.795,165.914 284.000,166.443 284.000 C 166.639 284.000,166.800 283.370,166.800 282.600 C 166.800 281.106,166.209 280.711,165.818 281.944 M167.820 287.168 C 167.695 287.370,167.864 287.807,168.196 288.139 C 168.528 288.471,168.800 289.025,168.800 289.371 C 168.800 289.716,169.430 290.666,170.200 291.482 C 170.970 292.299,171.600 293.117,171.600 293.301 C 171.600 293.485,172.615 294.572,173.855 295.718 C 175.095 296.863,176.395 298.115,176.744 298.500 C 177.092 298.885,177.557 299.200,177.776 299.200 C 177.995 299.200,178.540 299.605,178.987 300.100 C 179.434 300.595,180.430 301.346,181.200 301.770 C 181.970 302.193,182.717 302.715,182.860 302.928 C 183.002 303.142,183.452 303.181,183.860 303.016 C 184.548 302.737,184.537 302.686,183.700 302.297 C 183.205 302.066,182.800 301.725,182.800 301.539 C 182.800 301.352,182.531 301.200,182.203 301.200 C 181.610 301.200,180.483 300.361,178.375 298.350 C 177.770 297.773,176.735 297.061,176.076 296.770 C 175.417 296.478,174.605 295.777,174.271 295.213 C 173.938 294.649,173.179 293.662,172.583 293.020 C 171.474 291.822,170.537 290.388,169.371 288.100 C 168.700 286.782,168.232 286.501,167.820 287.168 M327.084 294.800 C 325.970 300.298,325.901 300.788,326.400 299.643 C 327.081 298.080,328.070 293.295,327.916 292.312 C 327.837 291.810,327.463 292.930,327.084 294.800 M325.420 303.420 C 325.117 304.142,324.784 305.579,324.218 308.600 C 324.007 309.730,324.028 309.718,324.567 308.400 C 324.881 307.630,325.153 306.451,325.170 305.780 C 325.186 305.109,325.400 304.360,325.645 304.115 C 325.890 303.870,326.013 303.438,325.918 303.155 C 325.805 302.816,325.635 302.906,325.420 303.420 M186.908 306.412 C 187.274 310.452,188.472 311.125,188.318 307.204 C 188.217 304.632,188.093 304.188,187.441 304.064 C 186.742 303.930,186.700 304.117,186.908 306.412 M322.822 312.622 C 322.348 314.091,322.040 315.373,322.139 315.472 C 322.237 315.570,322.715 314.458,323.200 313.000 C 323.685 311.542,323.993 310.260,323.884 310.150 C 323.774 310.041,323.297 311.153,322.822 312.622 M321.214 317.231 C 320.393 319.311,318.871 322.708,317.464 325.600 C 315.790 329.044,315.730 329.270,316.960 327.521 C 317.532 326.708,318.000 325.954,318.000 325.845 C 318.000 325.736,318.720 324.096,319.600 322.200 C 320.480 320.304,321.200 318.529,321.200 318.256 C 321.200 317.983,321.400 317.560,321.645 317.315 C 321.890 317.070,322.014 316.643,321.922 316.366 C 321.830 316.089,321.511 316.478,321.214 317.231 M314.850 331.006 C 314.382 331.798,314.000 332.574,314.000 332.730 C 314.000 332.886,313.534 333.700,312.964 334.538 C 312.395 335.376,312.019 336.152,312.129 336.263 C 312.310 336.443,312.772 335.706,315.274 331.250 C 316.303 329.418,315.917 329.197,314.850 331.006 M311.330 337.300 C 311.128 337.575,310.615 338.475,310.190 339.300 C 309.765 340.125,309.279 340.800,309.109 340.800 C 308.939 340.800,308.800 341.000,308.800 341.244 C 308.800 341.488,307.900 342.926,306.800 344.438 C 305.700 345.950,304.800 347.285,304.800 347.405 C 304.800 347.524,304.215 348.262,303.500 349.046 C 302.785 349.829,302.020 350.790,301.800 351.180 C 300.993 352.614,298.925 355.018,295.900 358.039 C 294.195 359.742,292.800 361.309,292.800 361.522 C 292.800 361.952,298.231 356.485,299.677 354.600 C 300.184 353.940,300.818 353.130,301.086 352.800 C 305.131 347.831,308.289 343.329,310.974 338.700 C 311.988 336.952,312.200 336.118,311.330 337.300 M290.400 363.817 C 285.247 368.984,280.745 372.800,277.047 375.135 C 275.973 375.813,274.493 376.915,273.758 377.584 C 273.023 378.253,272.324 378.800,272.206 378.800 C 272.088 378.800,270.936 379.520,269.647 380.400 C 268.358 381.280,267.173 382.000,267.013 382.000 C 266.854 382.000,266.245 382.341,265.660 382.757 C 265.076 383.173,262.978 384.362,260.999 385.398 C 257.930 387.005,255.623 388.475,257.000 387.946 C 257.804 387.638,263.039 384.896,264.400 384.071 C 265.170 383.604,266.340 382.924,267.000 382.559 C 267.660 382.195,269.034 381.290,270.054 380.548 C 271.073 379.807,272.073 379.200,272.275 379.200 C 272.478 379.200,273.334 378.568,274.177 377.795 C 275.021 377.023,276.721 375.770,277.955 375.011 C 279.190 374.253,280.885 372.995,281.722 372.216 C 282.560 371.437,283.370 370.791,283.522 370.781 C 283.979 370.750,292.230 362.799,291.798 362.807 C 291.579 362.811,290.950 363.265,290.400 363.817 M255.200 388.417 C 253.803 389.280,250.021 390.796,247.689 391.430 C 246.308 391.805,245.083 392.266,244.966 392.456 C 244.849 392.645,244.505 392.800,244.202 392.800 C 243.365 392.800,241.460 393.593,241.706 393.839 C 241.825 393.959,243.065 393.619,244.461 393.084 C 245.858 392.549,247.810 391.871,248.800 391.577 C 250.856 390.966,256.400 388.503,256.400 388.201 C 256.400 387.904,255.880 387.997,255.200 388.417 M239.600 394.355 C 239.270 394.536,237.650 395.000,236.000 395.386 C 234.350 395.772,232.687 396.248,232.305 396.444 C 231.923 396.640,231.275 396.800,230.865 396.800 C 229.958 396.800,227.495 397.628,227.723 397.856 C 227.958 398.091,238.331 395.379,240.000 394.646 C 240.770 394.308,241.130 394.030,240.800 394.028 C 240.470 394.026,239.930 394.173,239.600 394.355 M224.734 398.200 C 224.624 398.309,223.019 398.600,221.167 398.845 C 217.583 399.320,215.184 400.181,218.400 399.839 C 222.245 399.429,227.627 398.111,225.767 398.034 C 225.308 398.015,224.844 398.090,224.734 398.200 " stroke="none" fill="#9ddfcf" fill-rule="evenodd"></path></g></svg>